<mxfile host="app.diagrams.net" modified="2024-03-31T06:53:48.906Z" agent="Mozilla/5.0 (Windows NT 10.0; Win64; x64; rv:124.0) Gecko/20100101 Firefox/124.0" version="24.2.1" etag="YJmssWv0kGgkKTQPF2ft" type="github">
  <diagram name="第 1 页" id="3uOloUQrGmbBcit5UiPE">
    <mxGraphModel>
      <root>
        <mxCell id="0" />
        <mxCell id="1" parent="0" />
      </root>
    </mxGraphModel>
  </diagram>
</mxfile>
